<svg width="48" height="48" viewBox="0 0 48 48" fill="none" xmlns="http://www.w3.org/2000/svg">
<rect x="0.5" y="0.5" width="47" height="47" rx="23.5" fill="#F8F9FA"/>
<rect x="0.5" y="0.5" width="47" height="47" rx="23.5" stroke="#F8F9FA"/>
<path d="M21.1562 28.4375C21.1562 28.375 21.0938 28.3125 21 28.3125C20.9062 28.3125 20.8438 28.375 20.8438 28.4375C20.8438 28.5 20.9062 28.5625 21 28.5312C21.0938 28.5312 21.1562 28.5 21.1562 28.4375ZM20.1875 28.2812C20.1875 28.3438 20.25 28.4375 20.3438 28.4375C20.4062 28.4688 20.5 28.4375 20.5312 28.375C20.5312 28.3125 20.5 28.25 20.4062 28.2188C20.3125 28.1875 20.2188 28.2188 20.1875 28.2812ZM21.5938 28.25C21.5 28.25 21.4375 28.3125 21.4375 28.4062C21.4375 28.4688 21.5312 28.5 21.625 28.4688C21.7188 28.4375 21.7812 28.4062 21.75 28.3438C21.75 28.2812 21.6562 28.2188 21.5938 28.25ZM23.625 16.25C19.3125 16.25 16 19.5625 16 23.875C16 27.3438 18.1562 30.3125 21.2812 31.375C21.6875 31.4375 21.8125 31.1875 21.8125 31C21.8125 30.7812 21.8125 29.7188 21.8125 29.0625C21.8125 29.0625 19.625 29.5312 19.1562 28.125C19.1562 28.125 18.8125 27.2188 18.3125 27C18.3125 27 17.5938 26.5 18.3438 26.5C18.3438 26.5 19.125 26.5625 19.5625 27.3125C20.25 28.5312 21.375 28.1875 21.8438 27.9688C21.9062 27.4688 22.0938 27.125 22.3438 26.9062C20.5938 26.7188 18.8125 26.4688 18.8125 23.4688C18.8125 22.5938 19.0625 22.1875 19.5625 21.625C19.4688 21.4062 19.2188 20.5938 19.6562 19.5C20.2812 19.3125 21.8125 20.3438 21.8125 20.3438C22.4375 20.1562 23.0938 20.0938 23.75 20.0938C24.4375 20.0938 25.0938 20.1562 25.7188 20.3438C25.7188 20.3438 27.2188 19.2812 27.875 19.5C28.3125 20.5938 28.0312 21.4062 27.9688 21.625C28.4688 22.1875 28.7812 22.5938 28.7812 23.4688C28.7812 26.4688 26.9375 26.7188 25.1875 26.9062C25.4688 27.1562 25.7188 27.625 25.7188 28.375C25.7188 29.4062 25.6875 30.7188 25.6875 30.9688C25.6875 31.1875 25.8438 31.4375 26.25 31.3438C29.375 30.3125 31.5 27.3438 31.5 23.875C31.5 19.5625 27.9688 16.25 23.625 16.25ZM19.0312 27.0312C18.9688 27.0625 19 27.1562 19.0312 27.2188C19.0938 27.25 19.1562 27.2812 19.2188 27.25C19.25 27.2188 19.25 27.125 19.1875 27.0625C19.125 27.0312 19.0625 27 19.0312 27.0312ZM18.6875 26.7812C18.6562 26.8438 18.6875 26.875 18.75 26.9062C18.8125 26.9375 18.875 26.9375 18.9062 26.875C18.9062 26.8438 18.875 26.8125 18.8125 26.7812C18.75 26.75 18.7188 26.75 18.6875 26.7812ZM19.6875 27.9062C19.6562 27.9375 19.6562 28.0312 19.75 28.0938C19.8125 28.1562 19.9062 28.1875 19.9375 28.125C19.9688 28.0938 19.9688 28 19.9062 27.9375C19.8438 27.875 19.75 27.8438 19.6875 27.9062ZM19.3438 27.4375C19.2812 27.4688 19.2812 27.5625 19.3438 27.625C19.4062 27.6875 19.4688 27.7188 19.5312 27.6875C19.5625 27.6562 19.5625 27.5625 19.5312 27.5C19.4688 27.4375 19.4062 27.4062 19.3438 27.4375Z" fill="#121214"/>
</svg>
