<svg width="54" height="54" viewBox="0 0 54 54" fill="none" xmlns="http://www.w3.org/2000/svg">
<path d="M42.8594 40.4925C45.7645 44.3755 38.0052 47.1973 34.8773 41.5855L30.6279 44.0515L30.8884 44.4828C32.4891 47.1784 34.9896 48.7574 38.3694 49.2107C45.7689 50.0957 50.5996 45.3771 47.9775 38.6763C46.1139 34.8444 41.2314 34.1198 38.3848 32.2306C36.7107 31.2553 37.0592 29.191 38.4037 28.3628C39.4494 27.7187 41.8525 27.6371 43.0902 30.2039L47.1564 27.5832C43.9487 21.8014 36.3662 22.966 34.0934 25.5929C31.0029 29.2237 31.8869 33.2761 34.6064 35.8795C36.7217 37.9044 40.0412 38.5919 42.8594 40.4925ZM23.6481 48.6774C25.9906 47.73 27.3647 45.7713 27.7282 42.8596C27.7598 42.5648 27.7809 23.7508 27.7809 23.7508H22.627L22.5898 42.3606C22.4692 43.5656 21.7489 44.4292 20.6965 44.5985C18.9009 44.8875 17.7038 44.3646 16.4562 42.0287L12.2603 44.5656C14.0586 48.7931 19.48 50.3457 23.6481 48.6774ZM4.8326 0.580719H48.5424C51.1158 0.580719 53.1875 2.65238 53.1875 5.22582V48.9356C53.1875 51.5091 51.1158 53.5807 48.5424 53.5807H4.8326C2.25916 53.5807 0.1875 51.5091 0.1875 48.9356V5.22582C0.1875 2.65238 2.25916 0.580719 4.8326 0.580719Z" fill="#868E96"/>
</svg>
