<?xml version="1.0" standalone="no"?>
<!DOCTYPE svg PUBLIC "-//W3C//DTD SVG 20010904//EN"
 "http://www.w3.org/TR/2001/REC-SVG-20010904/DTD/svg10.dtd">
<svg version="1.0" xmlns="http://www.w3.org/2000/svg"
 width="592.000000pt" height="592.000000pt" viewBox="0 0 592.000000 592.000000"
 preserveAspectRatio="xMidYMid meet">

<g transform="translate(0.000000,592.000000) scale(0.100000,-0.100000)"
fill="#000000" stroke="none">
<path d="M2 2963 l-2 -2963 2914 0 2913 0 -8 43 c-4 23 -18 94 -29 157 -98
540 -132 667 -254 943 -86 195 -129 253 -222 296 -27 13 -80 46 -119 75 -63
47 -142 95 -355 216 -110 63 -213 104 -397 159 -58 18 -114 42 -132 56 -16 14
-74 48 -128 75 -54 28 -129 73 -168 100 -38 28 -101 73 -140 101 -38 27 -101
74 -140 104 -38 30 -77 55 -87 55 -22 0 -26 15 -18 67 4 23 3 44 -1 45 -5 2 9
26 30 53 66 85 101 159 101 209 0 26 -4 46 -9 46 -6 0 -11 14 -13 32 -3 36
-28 52 -28 18 0 -19 -2 -20 -15 -10 -11 9 -15 10 -15 0 0 -8 -10 -9 -30 -5
-19 4 -30 3 -30 -4 0 -6 13 -11 29 -11 24 0 28 -3 24 -20 -3 -11 -9 -17 -14
-14 -5 3 -7 10 -4 15 4 5 -1 9 -9 9 -9 0 -16 -7 -16 -16 0 -14 -3 -14 -15 -4
-9 7 -12 16 -7 19 16 10 -5 51 -23 45 -8 -3 -15 -10 -15 -14 0 -4 -17 -11 -37
-16 -23 -4 -31 -9 -20 -11 24 -6 22 -23 -3 -23 -11 0 -20 4 -20 9 0 5 -2 15
-5 23 -3 8 4 14 21 14 35 3 41 12 18 28 -15 12 -17 17 -6 27 19 20 14 44 -17
78 -16 17 -27 31 -24 31 3 0 0 7 -7 15 -7 8 -18 15 -24 14 -7 0 -6 -2 2 -6 6
-2 12 -9 12 -15 0 -6 -8 -3 -19 6 -10 9 -40 19 -67 22 -27 3 -60 7 -72 10 -13
3 -21 1 -18 -4 8 -14 -30 -22 -42 -10 -6 6 -27 12 -48 14 -51 4 -73 44 -24 44
13 0 17 5 14 15 -4 9 0 15 10 15 9 0 21 9 28 20 7 11 18 20 25 20 22 0 7 145
-16 160 -5 3 -11 30 -14 60 -4 30 -9 71 -13 90 -8 47 -8 57 3 112 8 36 7 54
-3 74 -8 14 -14 28 -14 30 0 10 50 3 62 -8 50 -47 59 -52 67 -39 7 10 13 10
32 -1 13 -7 27 -17 31 -23 5 -6 8 -6 8 2 0 6 8 12 18 12 22 0 92 18 160 42 51
18 54 18 80 1 14 -9 48 -38 75 -64 30 -29 54 -45 63 -41 17 6 41 -17 63 -59 8
-16 18 -28 23 -28 4 0 8 -21 8 -47 0 -32 -3 -43 -9 -34 -7 10 -9 8 -9 -10 2
-71 -14 -113 -26 -71 -2 9 -4 6 -3 -8 2 -14 8 -24 14 -23 11 2 3 -42 -12 -67
-3 -5 -2 -10 3 -10 5 0 7 -11 4 -25 -5 -29 -5 -29 37 -14 26 9 31 16 31 44 0
19 -5 37 -10 40 -15 9 -12 19 10 43 12 12 30 22 41 22 18 0 20 -4 15 -26 -5
-19 -3 -25 6 -22 7 3 13 18 13 33 1 23 7 32 31 41 17 7 36 19 43 28 10 12 9
14 -8 9 -25 -6 -27 9 -5 31 12 12 12 16 2 16 -8 1 -5 7 8 18 12 10 26 33 33
53 6 19 23 43 38 54 34 26 84 79 123 133 17 23 43 47 58 53 25 10 26 12 10 23
-27 20 -21 28 13 21 22 -5 29 -4 25 4 -4 6 -16 11 -26 11 -30 0 -30 11 -4 80
45 115 58 145 75 170 16 24 16 27 -2 60 -20 38 -25 75 -9 65 15 -9 12 4 -5 21
-13 14 -15 13 -16 -3 0 -10 -3 -13 -6 -5 -2 6 -9 10 -13 7 -12 -7 -41 36 -33
48 3 6 1 7 -5 3 -11 -6 -72 67 -72 86 0 10 52 -26 95 -67 36 -35 55 -41 55
-20 0 9 7 18 15 21 8 4 15 17 15 30 0 23 -58 141 -85 174 -7 8 -31 65 -53 126
-49 133 -72 184 -85 184 -5 0 -4 -7 3 -15 7 -8 10 -15 7 -15 -3 0 0 -12 8 -27
8 -15 12 -30 10 -34 -3 -4 2 -9 10 -13 8 -3 15 -12 15 -20 0 -9 14 -49 30 -91
38 -96 38 -106 -3 -67 -22 21 -37 28 -46 23 -24 -15 -58 32 -52 73 0 4 10 -2
20 -15 l19 -24 -1 26 c-1 14 -6 26 -12 26 -5 0 -19 1 -30 2 -18 2 -18 3 3 12
13 5 20 14 16 20 -4 8 -9 7 -15 -2 -8 -12 -10 -12 -18 0 -7 11 -9 11 -13 0 -3
-8 -10 0 -19 19 -7 18 -17 32 -21 32 -5 0 -8 7 -8 16 0 9 5 12 13 8 8 -5 8 -2
-2 9 -16 20 -22 22 -18 5 1 -8 -8 -13 -23 -13 -14 0 -25 5 -25 12 0 6 -3 15
-7 19 -5 4 -8 -2 -8 -13 0 -12 7 -23 15 -27 15 -5 21 -26 8 -26 -24 1 -38 23
-42 63 -1 5 -5 6 -10 3 -11 -7 -23 22 -14 36 3 6 1 8 -4 5 -6 -4 -22 11 -37
33 -29 44 -32 54 -13 45 6 -4 5 0 -3 7 -21 19 -60 75 -60 88 0 5 -5 10 -11 10
-5 0 -7 5 -4 10 8 13 -14 42 -26 34 -5 -3 -8 0 -7 8 2 7 -3 12 -10 10 -8 -1
-11 2 -7 8 3 5 2 10 -4 10 -5 0 -25 14 -43 30 -18 17 -26 30 -19 30 22 0 172
-89 208 -123 18 -17 36 -27 40 -22 5 4 2 10 -5 13 -21 7 -83 64 -77 70 7 7
-87 68 -130 83 -19 7 -42 23 -50 35 -8 13 -29 24 -53 27 -21 4 -49 16 -63 27
-13 12 -25 17 -27 11 -2 -6 -8 -11 -13 -11 -4 0 -6 6 -3 13 6 16 -112 70 -138
64 -10 -3 -21 -1 -24 4 -3 5 -10 9 -15 9 -6 0 -8 -4 -5 -9 4 -5 -4 -7 -16 -3
-14 3 -19 1 -14 -6 10 -16 -28 -20 -40 -3 -10 12 -15 11 -35 -8 -13 -12 -33
-24 -45 -27 -12 -3 -24 -15 -27 -26 -4 -15 -11 -18 -29 -13 -31 10 -48 24 -48
42 0 16 -12 32 -59 79 -24 24 -43 34 -65 34 -19 0 -26 3 -19 8 8 5 -5 9 -30
10 -106 3 -104 3 -82 12 17 7 17 9 3 9 -10 1 -18 6 -18 11 0 6 -24 10 -52 10
-38 0 -49 3 -38 10 8 5 28 10 43 10 16 0 26 4 23 9 -4 5 0 11 6 14 7 2 1 4
-14 3 -16 0 -28 -5 -28 -10 0 -4 -9 -6 -20 -3 -12 3 -18 1 -14 -5 4 -6 -1 -8
-12 -4 -11 3 -26 1 -34 -5 -12 -8 -9 -9 10 -4 24 6 25 6 5 -10 -13 -11 -32
-14 -55 -11 -19 2 -27 2 -17 -1 17 -4 15 -7 -8 -19 -36 -18 -40 -18 -24 3 13
17 13 17 -11 0 -14 -9 -49 -29 -77 -43 -49 -25 -167 -134 -145 -134 6 0 25 18
42 40 17 22 37 40 43 39 7 0 2 -7 -10 -16 -13 -8 -23 -22 -23 -30 0 -15 -49
-78 -61 -78 -19 0 -46 -38 -42 -58 4 -18 3 -19 -6 -7 -6 8 -11 11 -12 5 -7
-81 -26 -100 -96 -98 -7 1 -13 -5 -13 -13 0 -8 -3 -14 -7 -15 -31 -3 -57 -11
-77 -24 -12 -8 -26 -12 -29 -8 -4 3 -10 -7 -13 -23 -3 -17 -18 -37 -37 -49
-44 -29 -54 -49 -41 -82 13 -33 23 -61 16 -50 -7 13 -32 -14 -32 -35 0 -10 -7
-21 -15 -24 -8 -4 -15 -12 -15 -19 0 -6 -10 -17 -22 -23 -13 -6 -17 -11 -11
-11 14 -1 -55 -97 -113 -158 -19 -20 -43 -56 -54 -80 -10 -24 -21 -43 -25 -43
-7 0 -46 22 -70 40 -19 14 -19 14 -5 -5 8 -11 23 -27 34 -35 17 -15 17 -18 1
-55 -9 -22 -19 -51 -21 -65 -3 -14 -15 -35 -28 -46 -16 -16 -23 -34 -24 -70
-1 -27 2 -56 8 -64 7 -11 8 -5 4 20 -5 25 -4 32 4 25 6 -6 12 -25 14 -43 1
-20 10 -38 20 -43 10 -5 18 -15 18 -22 0 -7 -4 -6 -10 3 -9 13 -10 13 -10 0 0
-9 7 -26 17 -39 12 -18 16 -49 17 -136 1 -88 5 -117 19 -138 9 -14 26 -52 38
-84 27 -77 40 -104 62 -127 9 -11 17 -27 17 -35 0 -33 21 -89 35 -95 12 -4 14
0 9 19 -7 30 5 32 33 6 20 -19 35 -24 62 -22 9 1 5 9 -12 24 -15 12 -27 30
-27 40 0 20 26 23 33 5 4 -10 8 -10 15 1 7 9 12 10 16 2 4 -6 4 -11 1 -11 -4
0 1 -7 9 -16 17 -17 22 -69 6 -59 -13 8 -13 1 5 -41 8 -19 12 -41 9 -48 -6
-15 29 -40 40 -29 3 3 6 -1 6 -10 0 -10 4 -17 8 -17 14 0 1 64 -15 77 -9 7
-13 19 -10 28 7 17 -4 20 -20 4 -7 -7 -10 4 -10 38 0 26 -1 84 -3 127 -3 66 0
81 14 92 10 7 24 10 32 7 10 -4 14 3 14 21 0 27 14 35 24 14 3 -7 4 -4 2 7 -7
31 48 69 108 75 39 4 65 0 111 -19 42 -16 80 -24 125 -24 87 0 121 4 115 14
-3 4 7 8 22 8 43 0 67 7 71 19 2 7 8 12 13 12 6 0 8 -4 4 -9 -3 -5 0 -13 6
-17 8 -4 9 -3 5 5 -4 6 0 14 9 17 20 8 27 1 29 -27 2 -34 29 -46 59 -26 24 16
37 53 37 107 0 16 5 30 12 32 9 3 10 23 1 84 -8 65 -15 85 -37 107 -14 14 -26
35 -26 45 0 11 -6 22 -14 25 -7 3 -17 22 -20 41 -7 38 -69 104 -90 97 -22 -8
-136 -6 -136 2 0 5 -9 6 -19 2 -11 -3 -22 -1 -25 4 -4 6 -13 8 -21 4 -8 -3
-15 0 -15 7 0 7 -8 9 -19 5 -11 -3 -22 -1 -25 4 -6 10 0 17 39 47 20 15 19 15
-2 5 -12 -6 -28 -9 -35 -6 -16 6 -22 45 -7 45 6 0 7 -4 4 -10 -3 -5 -3 -10 2
-10 4 0 21 20 38 45 16 24 32 42 36 39 6 -4 22 33 20 48 0 4 7 4 17 1 15 -6
15 -5 3 10 -11 14 -11 17 1 17 17 0 22 81 6 91 -6 4 0 15 13 27 19 19 20 22 6
28 -13 5 -14 10 -7 25 6 10 10 22 9 26 -5 28 2 36 15 18 8 -11 12 -26 9 -35
-4 -13 -4 -13 6 0 5 8 8 25 4 38 -4 18 -2 21 13 15 12 -5 15 -3 9 6 -4 8 -2
17 6 22 10 6 11 9 2 9 -7 0 -13 5 -13 12 0 6 3 9 6 6 3 -3 17 5 32 19 22 21
28 22 30 9 5 -23 22 -20 22 4 0 23 44 55 61 44 8 -4 9 -3 5 4 -5 8 3 12 23 12
18 0 41 10 57 25 15 14 36 25 46 25 12 0 17 4 12 12 -5 8 -2 9 9 5 10 -3 17
-2 17 2 0 5 -6 12 -12 14 -8 3 -6 6 5 6 9 1 17 -4 17 -10 0 -6 7 -8 16 -5 10
4 19 -4 29 -27 12 -27 14 -28 15 -9 0 12 5 22 10 22 12 0 66 -36 90 -60 20
-19 64 -44 56 -32 -3 6 2 9 11 7 10 -1 26 2 35 7 14 6 16 5 12 -7 -4 -8 -15
-15 -25 -15 -10 0 -19 -4 -19 -10 0 -15 -16 -12 -34 6 -9 8 -16 11 -16 6 0
-37 94 -38 105 -1 4 10 14 19 23 19 10 0 13 -3 6 -8 -15 -10 -25 -42 -14 -42
6 0 10 7 10 15 0 18 27 20 32 3 2 -6 13 -12 24 -13 32 -4 54 -16 54 -32 0 -8
5 -11 10 -8 6 3 10 0 10 -7 0 -10 3 -9 11 2 8 11 9 8 4 -13 -3 -17 -2 -26 4
-23 11 7 23 -22 14 -36 -4 -7 -1 -8 7 -3 10 6 12 4 7 -8 -4 -11 -1 -17 7 -17
20 0 27 -27 10 -40 -8 -7 -14 -18 -14 -25 0 -8 -5 -15 -12 -17 -6 -2 -13 -15
-15 -29 -2 -19 -1 -21 7 -9 8 11 10 5 8 -25 -1 -27 2 -39 10 -38 7 2 12 -2 12
-7 0 -6 6 -10 13 -10 14 0 15 -1 19 -128 4 -87 3 -93 -15 -88 -12 3 -17 0 -14
-8 4 -9 -3 -12 -25 -10 -16 2 -34 6 -39 9 -5 4 -9 -1 -9 -10 0 -12 -6 -15 -21
-10 -14 5 -19 3 -15 -4 5 -7 -4 -9 -26 -7 -39 5 -143 -17 -164 -35 -15 -12
-15 -44 0 -68 6 -9 5 -12 -1 -8 -10 6 -45 -28 -36 -36 2 -3 -7 -13 -21 -22
-14 -10 -26 -26 -26 -36 0 -11 -3 -19 -7 -19 -15 0 -13 -115 2 -185 8 -38 20
-103 26 -142 6 -40 14 -73 19 -73 4 0 6 -9 3 -20 -3 -11 0 -20 6 -20 6 0 11
-7 11 -16 0 -9 16 -34 35 -55 19 -22 35 -47 35 -57 0 -19 -57 -76 -129 -129
-42 -31 -45 -31 -72 -17 -20 10 -35 12 -47 5 -18 -10 -26 -3 -84 70 -19 23
-78 7 -78 -22 0 -25 34 -62 59 -64 24 -2 80 -46 80 -63 1 -7 -4 -10 -10 -6
-24 15 -54 8 -81 -19 -15 -16 -32 -26 -37 -23 -5 4 -11 -4 -13 -16 -2 -14 -11
-22 -25 -23 -12 -1 -31 -12 -42 -26 -12 -14 -20 -19 -21 -10 0 7 -6 11 -15 8
-8 -4 -17 -2 -20 3 -3 6 -15 6 -30 0 -15 -6 -25 -5 -27 1 -4 12 -52 -6 -82
-30 -11 -9 -16 -10 -12 -3 14 23 -11 12 -52 -24 -23 -19 -44 -48 -47 -65 -4
-16 -11 -31 -16 -34 -5 -4 -9 -13 -9 -21 0 -8 4 -12 10 -9 5 3 10 -1 10 -9 0
-9 7 -16 16 -16 11 0 14 -6 10 -17 -5 -15 -4 -15 9 1 8 11 15 14 15 7 0 -7 4
-10 9 -7 8 6 33 -17 28 -25 -1 -2 4 2 11 10 6 8 12 18 12 23 0 4 13 8 29 8 28
0 101 -57 101 -79 0 -6 8 -11 18 -11 15 0 15 -2 2 -10 -13 -9 -13 -12 3 -21 9
-6 15 -14 12 -20 -4 -5 9 -9 29 -9 44 0 68 -9 59 -23 -4 -7 6 -8 30 -4 21 3
37 2 37 -4 0 -5 11 -9 24 -9 14 0 27 -4 30 -9 3 -4 22 -7 43 -7 21 1 46 -2 56
-6 11 -6 17 -5 17 4 0 9 3 9 10 -2 8 -13 11 -12 24 5 15 20 15 19 16 -5 1 -22
2 -23 11 -7 5 9 18 17 27 17 16 -1 16 -1 -1 -11 -21 -12 -13 -29 14 -29 18 0
23 9 20 40 -2 12 0 13 7 1 7 -10 21 -12 48 -7 27 5 35 4 24 -3 -13 -9 -12 -13
7 -31 12 -11 29 -20 38 -20 8 0 15 -7 15 -15 0 -10 11 -15 35 -15 25 0 35 -4
35 -16 0 -11 6 -14 22 -9 20 5 20 4 6 -5 -9 -6 -15 -17 -12 -25 5 -11 -1 -12
-31 -4 -42 12 -70 5 -59 -13 6 -10 5 -10 -7 -1 -21 17 -29 16 -48 -6 -17 -20
-18 -20 -31 0 -8 10 -18 19 -22 19 -11 0 -10 -28 1 -32 5 -1 3 -12 -5 -22 -14
-20 -14 -20 -15 0 -1 10 -1 22 -1 25 3 16 -38 -5 -44 -23 -6 -19 -6 -19 -21
-1 -9 11 -12 12 -8 3 4 -8 -1 -6 -10 5 -17 20 -17 19 -11 -6 4 -18 1 -31 -9
-39 -12 -10 -15 -9 -15 4 0 22 -20 21 -21 -1 0 -15 -2 -15 -10 2 -13 26 -55
55 -46 33 3 -8 1 -21 -4 -29 -6 -10 -9 -8 -10 11 -1 16 -3 19 -6 8 -2 -9 -11
-19 -19 -22 -14 -5 -19 9 -15 44 2 12 0 12 -7 2 -5 -7 -15 -14 -23 -15 -8 -2
-20 -7 -28 -11 -11 -7 -13 -4 -8 13 8 31 -1 51 -20 44 -11 -4 -14 -2 -9 5 5 8
2 10 -9 5 -10 -3 -21 0 -25 8 -7 11 -10 10 -16 -4 -9 -25 -26 -21 -19 6 5 18
3 17 -10 -5 -17 -30 -27 -36 -22 -15 1 8 -10 11 -35 10 -22 -1 -38 2 -38 9 0
7 -5 6 -15 -2 -8 -7 -13 -16 -10 -19 7 -12 -29 -9 -37 3 -4 6 1 19 10 30 16
18 16 18 -5 7 -29 -15 -32 -14 -28 9 2 11 -2 21 -8 21 -7 1 -16 2 -22 4 -5 1
-19 3 -30 4 -16 1 -17 3 -6 10 15 10 22 59 9 67 -7 4 -5 17 8 62 7 24 -10 31
-20 7 -8 -22 -36 -18 -36 5 0 12 -5 17 -14 14 -8 -3 -17 0 -22 7 -5 9 -9 7
-15 -7 -7 -18 -8 -18 -9 1 l-1 20 -9 -20 c-9 -20 -9 -20 -9 1 -1 11 -7 26 -13
32 -10 10 -16 8 -28 -8 -19 -25 -52 -18 -43 8 4 9 3 14 -2 10 -4 -4 -9 -26
-10 -48 -2 -41 9 -44 17 -5 5 19 5 19 13 1 5 -11 3 -21 -5 -26 -7 -4 -10 -12
-7 -16 3 -5 -8 -9 -24 -9 -33 0 -35 3 -14 32 14 20 14 22 -5 20 -15 -1 -19 -6
-14 -22 7 -20 6 -20 -15 -1 -12 11 -20 25 -17 31 2 6 -2 19 -10 30 -20 26 -17
1 5 -53 9 -23 21 -39 26 -35 4 4 5 2 1 -4 -4 -7 11 -39 34 -73 40 -61 57 -103
51 -129 -1 -8 3 -12 12 -8 21 8 49 -24 37 -43 -8 -12 -10 -11 -10 7 0 12 -4
25 -10 28 -6 3 -10 -5 -10 -18 0 -25 31 -48 38 -28 2 6 8 11 13 11 14 0 69
-52 64 -61 -3 -4 1 -10 7 -12 8 -3 6 -6 -4 -6 -22 -1 -34 2 -31 10 1 3 -9 5
-22 5 -17 0 -21 -3 -15 -11 6 -7 7 -15 3 -18 -3 -4 1 -7 10 -7 8 0 24 -11 34
-24 11 -13 28 -26 39 -28 11 -2 18 -11 18 -21 -2 -13 1 -15 11 -7 10 8 14 2
21 -27 4 -21 6 -44 5 -50 -1 -7 3 -13 9 -13 5 0 9 3 7 8 -4 14 16 17 23 2 4
-8 14 -29 22 -47 13 -26 14 -31 2 -26 -8 3 -14 1 -14 -5 0 -11 38 -62 59 -78
12 -10 11 -13 -7 -18 -12 -4 -22 -14 -22 -23 0 -15 57 -95 72 -101 5 -2 8 -12
8 -22 0 -13 6 -18 19 -15 15 3 18 -2 15 -30 -2 -26 3 -35 21 -43 16 -7 24 -22
29 -51 3 -22 16 -55 29 -74 22 -32 29 -89 14 -114 -4 -6 4 -18 19 -27 32 -21
119 -33 128 -17 4 6 16 11 27 11 11 0 19 7 19 17 0 9 2 14 5 11 3 -3 26 -1 51
3 60 11 87 -2 78 -38 -6 -22 -4 -24 15 -18 17 5 23 1 31 -19 5 -14 16 -26 25
-26 8 0 15 -5 15 -11 0 -6 7 -9 14 -6 10 4 13 1 9 -9 -7 -18 5 -18 50 1 46 19
68 19 43 0 -23 -17 -18 -26 10 -19 23 6 58 62 55 87 -3 22 51 24 69 2 7 -8 19
-15 26 -15 8 0 15 -6 15 -12 1 -7 3 -23 4 -35 1 -12 -2 -20 -6 -17 -5 3 -9 -1
-10 -8 0 -7 -2 -20 -4 -29 -4 -25 26 -18 38 8 5 13 17 23 26 23 17 0 -44 -67
-92 -102 -22 -15 -31 -17 -42 -8 -7 6 -11 18 -8 26 3 8 1 14 -5 14 -13 0 -10
-24 7 -43 11 -14 5 -20 -46 -45 -132 -67 -287 -86 -457 -57 -128 22 -190 44
-288 102 -105 63 -208 171 -308 324 -92 140 -131 226 -109 240 8 5 10 9 5 9
-6 0 -1 7 10 15 10 8 15 15 11 15 -5 0 3 21 16 48 52 98 51 98 35 150 -12 37
-14 59 -7 93 6 24 13 73 18 109 4 36 13 78 19 93 15 36 15 37 -4 37 -10 0 -12
5 -7 12 15 26 12 38 -7 26 -14 -9 -16 -18 -10 -39 6 -20 4 -29 -5 -33 -7 -2
-15 -15 -18 -28 -2 -13 -5 12 -6 55 l-1 78 -32 -17 c-73 -37 -168 -107 -187
-138 -17 -27 -35 -37 -103 -60 -196 -67 -331 -151 -540 -339 -67 -60 -109 -84
-355 -207 -153 -77 -307 -157 -343 -178 -36 -21 -84 -43 -107 -50 -64 -19
-184 -131 -234 -217 -64 -113 -83 -157 -153 -365 -57 -172 -83 -269 -110 -413
-20 -103 -37 -200 -38 -215 -2 -15 -5 1260 -8 2833 l-5 2860 -3 -2962z m2998
2342 c11 -13 10 -14 -4 -9 -9 3 -16 10 -16 15 0 13 6 11 20 -6z m80 -15 c16
-23 19 -34 11 -47 -10 -17 -10 -17 -11 1 0 11 -12 33 -27 48 -20 21 -23 28
-11 28 9 0 26 -13 38 -30z m327 -16 c-3 -3 -12 -4 -19 -1 -8 3 -5 6 6 6 11 1
17 -2 13 -5z m48 -12 c-3 -3 -11 0 -18 7 -9 10 -8 11 6 5 10 -3 15 -9 12 -12z
m-55 -6 c0 -2 -9 -6 -20 -9 -11 -3 -18 -1 -14 4 5 9 34 13 34 5z m-1257 -313
c-7 -3 -13 -12 -13 -21 0 -12 -3 -13 -12 -4 -9 9 -8 15 8 26 10 8 21 12 24 9
3 -3 -1 -8 -7 -10z m-89 -95 c8 -33 8 -34 -14 -35 -11 -1 -20 2 -20 8 0 5 5 9
10 9 6 0 10 5 10 11 0 5 -4 7 -10 4 -11 -7 -14 8 -3 18 12 12 21 7 27 -15z
m26 -8 c0 -5 -2 -10 -4 -10 -3 0 -8 5 -11 10 -3 6 -1 10 4 10 6 0 11 -4 11
-10z m1067 -26 c-3 -3 -12 -4 -19 -1 -8 3 -5 6 6 6 11 1 17 -2 13 -5z m934
-121 c13 -16 12 -17 -3 -4 -17 13 -22 21 -14 21 2 0 10 -8 17 -17z m2 -40 c-7
-2 -19 -2 -25 0 -7 3 -2 5 12 5 14 0 19 -2 13 -5z m27 -98 c7 -8 8 -15 2 -15
-5 0 -15 7 -22 15 -7 8 -8 15 -2 15 5 0 15 -7 22 -15z m-660 -26 c0 -5 -4 -9
-10 -9 -5 0 -10 7 -10 16 0 8 5 12 10 9 6 -3 10 -10 10 -16z m809 -38 c12 -7
18 -17 15 -23 -4 -6 -3 -8 3 -5 14 9 52 -34 55 -63 2 -17 -2 -25 -12 -24 -20
1 -20 -40 0 -58 12 -11 12 -11 1 5 -12 15 -11 20 3 36 24 26 46 22 67 -13 27
-43 21 -71 -13 -71 -22 -1 -28 4 -28 20 0 12 -3 16 -8 8 -5 -8 -15 -4 -34 12
-15 13 -24 26 -20 29 3 4 -2 4 -11 0 -11 -4 -25 1 -37 11 -22 20 -26 45 -7 45
7 0 4 7 -7 15 -11 8 -16 15 -10 15 5 0 3 4 -3 8 -7 4 -15 22 -19 39 -5 28 -4
30 19 28 13 -2 34 -8 46 -14z m-2434 -31 c-3 -5 -11 -10 -16 -10 -6 0 -7 5 -4
10 3 6 11 10 16 10 6 0 7 -4 4 -10z m2360 -37 c-3 -9 2 -24 11 -34 8 -9 17
-23 18 -31 1 -7 8 -23 14 -35 7 -13 9 -23 5 -23 -4 0 -2 -4 6 -9 7 -5 9 -11 4
-14 -11 -7 -47 38 -58 73 -6 20 -5 23 7 15 8 -6 7 -4 -2 5 -9 8 -19 23 -23 33
-8 21 2 49 15 41 5 -3 7 -13 3 -21z m-648 -179 c-3 -3 -12 -4 -19 -1 -8 3 -5
6 6 6 11 1 17 -2 13 -5z m-1855 -144 c4 -45 -8 -55 -14 -12 -4 27 -1 52 7 52
1 0 5 -18 7 -40z m825 -153 c-2 -6 -20 -12 -40 -14 -28 -1 -34 1 -26 10 15 15
71 18 66 4z m842 -9 c-10 -18 -9 -20 5 -15 10 4 15 3 11 -3 -3 -6 -1 -10 4
-10 26 0 8 -16 -20 -18 -21 -2 -28 1 -23 9 5 9 0 10 -17 6 l-24 -6 24 20 c13
10 19 19 15 19 -11 0 18 20 29 20 4 0 3 -10 -4 -22z m-812 -34 c13 -12 12 -14
-1 -14 -9 0 -16 6 -17 13 0 10 -2 10 -6 0 -6 -17 -33 -17 -33 0 0 18 39 19 57
1z m833 -49 c0 -8 -2 -15 -4 -15 -2 0 -6 7 -10 15 -3 8 -1 15 4 15 6 0 10 -7
10 -15z m-845 -4 c3 -5 1 -12 -4 -15 -5 -3 -11 1 -15 9 -6 16 9 21 19 6z m-91
-45 c21 -50 55 -64 156 -61 65 2 78 1 55 -7 -45 -14 -98 -17 -112 -6 -7 5 -16
7 -21 4 -5 -3 -33 1 -61 10 -55 16 -76 48 -49 78 17 20 16 21 32 -18z m214
-31 c-8 -6 -73 -25 -87 -25 -12 0 -10 3 5 15 12 8 27 28 34 45 l13 31 19 -32
c10 -17 18 -32 16 -34z m527 55 c-3 -5 -11 -10 -16 -10 -6 0 -7 5 -4 10 3 6
11 10 16 10 6 0 7 -4 4 -10z m126 -26 l17 -34 -37 6 c-20 4 -39 12 -43 18 -5
8 -8 7 -8 -1 0 -7 -6 -13 -12 -13 -15 0 42 59 57 59 6 0 17 -15 26 -35z m-531
16 c12 -7 12 -12 0 -34 -7 -14 -19 -26 -26 -26 -7 0 -21 -3 -31 -6 -15 -5 -15
-4 -3 5 12 9 9 11 -15 11 -29 1 -30 1 -6 11 18 7 27 6 32 -3 6 -9 13 -8 28 6
20 18 20 20 3 32 -19 15 -5 19 18 4z m724 -9 c8 -12 -16 -38 -41 -46 -23 -6
-23 -6 -5 24 17 30 36 39 46 22z m-309 -36 c32 -11 35 -14 15 -14 -14 0 -34 6
-44 14 -24 18 -21 18 29 0z m148 -11 c2 5 6 2 10 -8 6 -16 3 -18 -24 -12 -17
3 -42 6 -55 6 -13 0 -24 4 -24 8 0 5 20 6 45 2 28 -4 46 -3 48 4z m402 -134
c3 -5 1 -10 -4 -10 -6 0 -11 5 -11 10 0 6 2 10 4 10 3 0 8 -4 11 -10z m-535
-362 c0 -15 -4 -30 -10 -33 -5 -3 -7 0 -4 9 3 8 0 24 -6 35 -6 12 -8 26 -4 32
9 16 24 -10 24 -43z m-233 -250 c-3 -7 -5 -2 -5 12 0 14 2 19 5 13 2 -7 2 -19
0 -25z m-18 -38 c1 12 3 13 10 1 7 -11 11 -10 19 5 10 18 11 18 18 1 5 -13 9
-15 14 -6 6 8 11 6 19 -9 10 -18 9 -21 -4 -16 -8 4 -15 1 -15 -4 0 -6 -9 -14
-20 -17 -24 -8 -130 13 -130 25 0 10 25 20 51 20 10 0 19 6 20 13 0 6 4 3 9
-8 6 -13 9 -15 9 -5z m-265 -60 c-17 -14 -64 -21 -64 -9 0 7 3 10 6 6 8 -8 33
16 27 26 -3 5 5 4 17 -3 12 -6 18 -15 14 -20z m66 18 c0 -4 -4 -8 -9 -8 -6 0
-12 4 -15 8 -3 5 1 9 9 9 8 0 15 -4 15 -9z m490 -8 c9 -16 8 -18 -5 -14 -8 4
-15 12 -15 20 0 20 7 17 20 -6z m280 -12 c0 -16 -3 -19 -11 -11 -6 6 -8 16 -5
22 11 17 16 13 16 -11z m0 -62 c0 -3 -4 -8 -10 -11 -5 -3 -10 -1 -10 4 0 6 5
11 10 11 6 0 10 -2 10 -4z m-705 -36 c-3 -5 9 -7 30 -5 20 3 34 2 31 -3 -2 -4
30 -3 72 3 54 8 79 8 84 1 5 -8 8 -8 8 0 0 7 11 9 25 6 31 -5 32 -17 3 -27
-13 -4 -25 -8 -28 -9 -24 -11 -66 -18 -118 -19 -47 -2 -62 1 -62 12 0 9 -8 12
-23 9 -29 -6 -57 20 -36 33 18 11 22 11 14 -1z m908 -20 c-3 -11 -9 -20 -14
-20 -14 0 -11 28 4 33 6 3 13 6 14 6 0 1 -1 -8 -4 -19z m-316 -6 c4 -10 -4
-25 -21 -41 -14 -13 -24 -28 -21 -33 9 -15 -17 -23 -26 -9 -7 10 -8 7 -7 -10
2 -13 -3 -26 -11 -29 -9 -3 -11 0 -7 7 4 7 2 19 -6 28 -10 13 -10 17 0 20 6 3
12 12 12 21 0 22 40 62 62 62 10 0 21 -7 25 -16z m-1086 -143 c7 12 9 12 9 -1
0 -12 2 -12 9 -2 6 10 10 9 14 -7 4 -18 2 -20 -21 -15 -39 10 -42 13 -34 32 6
15 7 15 10 -2 3 -15 6 -16 13 -5z m-86 -20 c3 -5 2 -12 -3 -15 -5 -3 -9 1 -9
9 0 17 3 19 12 6z m210 -69 c-3 -3 -11 0 -18 7 -9 10 -8 11 6 5 10 -3 15 -9
12 -12z m900 -16 c12 -12 12 -15 1 -19 -8 -3 -16 2 -19 14 -6 23 -1 24 18 5z
m-595 -97 c0 -5 -4 -9 -10 -9 -5 0 -10 7 -10 16 0 8 5 12 10 9 6 -3 10 -10 10
-16z m-116 -4 c-4 -8 -8 -15 -10 -15 -2 0 -4 7 -4 15 0 8 4 15 10 15 5 0 7 -7
4 -15z m590 -7 c-3 -4 -9 -8 -15 -8 -5 0 -9 4 -9 8 0 5 7 9 15 9 8 0 12 -4 9
-9z m-127 -55 c-3 -10 -5 -2 -5 17 0 19 2 27 5 18 2 -10 2 -26 0 -35z m-666
-97 c-9 -11 -9 -15 1 -19 7 -2 10 -8 6 -12 -4 -4 -15 -5 -24 -1 -15 6 -15 8 1
26 20 23 34 27 16 6z m1053 -971 c-4 -8 -10 -12 -15 -9 -11 6 -2 24 11 24 5 0
7 -7 4 -15z"/>
<path d="M4266 4389 c4 -7 44 0 44 7 0 2 -11 3 -24 2 -14 -1 -23 -5 -20 -9z"/>
<path d="M5915 2960 c0 -1631 1 -2298 2 -1482 2 815 2 2149 0 2965 -1 815 -2
148 -2 -1483z"/>
<path d="M2888 5483 c17 -2 47 -2 65 0 17 2 3 4 -33 4 -36 0 -50 -2 -32 -4z"/>
<path d="M2908 5413 c6 -2 18 -2 25 0 6 3 1 5 -13 5 -14 0 -19 -2 -12 -5z"/>
<path d="M3050 5381 c0 -9 30 -24 36 -18 2 1 -6 8 -16 15 -11 7 -20 8 -20 3z"/>
<path d="M3192 5330 c0 -14 2 -19 5 -12 2 6 2 18 0 25 -3 6 -5 1 -5 -13z"/>
<path d="M3120 5311 c0 -6 4 -13 10 -16 6 -3 7 1 4 9 -7 18 -14 21 -14 7z"/>
<path d="M3185 5239 c-4 -6 -5 -12 -2 -15 2 -3 7 2 10 11 7 17 1 20 -8 4z"/>
<path d="M2362 5195 c-12 -14 -22 -28 -22 -33 1 -4 9 3 19 16 12 14 21 18 23
10 3 -8 7 -6 11 5 10 27 -8 28 -31 2z"/>
<path d="M3944 5026 c11 -9 24 -16 30 -16 12 0 7 5 -24 19 -24 11 -24 11 -6
-3z"/>
<path d="M3950 4881 c0 -6 4 -13 10 -16 6 -3 7 1 4 9 -7 18 -14 21 -14 7z"/>
<path d="M4024 4873 c2 -10 6 -17 9 -15 4 1 12 2 18 2 6 0 4 7 -5 15 -19 20
-25 19 -22 -2z"/>
<path d="M4058 4813 c6 -2 12 -11 12 -19 0 -8 7 -14 15 -14 12 0 12 3 -2 20
-10 11 -22 20 -28 19 -5 0 -4 -3 3 -6z"/>
<path d="M2635 4720 c-3 -6 1 -7 9 -4 18 7 21 14 7 14 -6 0 -13 -4 -16 -10z"/>
<path d="M4141 4698 c9 -7 14 -18 12 -24 -2 -6 3 -11 12 -11 13 0 13 3 2 21
-8 11 -20 22 -28 24 -10 2 -10 0 2 -10z"/>
<path d="M2765 4120 c-3 -5 -1 -18 4 -27 9 -16 10 -14 11 10 0 28 -5 34 -15
17z"/>
<path d="M2791 4064 c0 -11 3 -14 6 -6 3 7 2 16 -1 19 -3 4 -6 -2 -5 -13z"/>
<path d="M3615 3660 c-3 -5 -1 -10 4 -10 6 0 11 5 11 10 0 6 -2 10 -4 10 -3 0
-8 -4 -11 -10z"/>
<path d="M2735 3389 c-10 -15 3 -25 16 -12 7 7 7 13 1 17 -6 3 -14 1 -17 -5z"/>
<path d="M4010 3331 c0 -5 9 -7 20 -4 11 3 20 7 20 9 0 2 -9 4 -20 4 -11 0
-20 -4 -20 -9z"/>
<path d="M3800 3270 c0 -13 11 -13 30 0 12 8 11 10 -7 10 -13 0 -23 -4 -23
-10z"/>
<path d="M3818 3246 c-10 -7 -15 -16 -12 -19 4 -3 13 1 21 9 20 19 13 26 -9
10z"/>
<path d="M2736 3227 c9 -32 32 -54 65 -66 23 -8 29 -7 29 4 0 7 -9 16 -19 20
-11 3 -34 19 -51 35 -28 26 -30 27 -24 7z"/>
<path d="M2070 3178 c0 -9 -10 -19 -22 -21 -20 -4 -20 -4 -3 -5 32 -2 53 14
37 30 -9 9 -12 9 -12 -4z"/>
<path d="M3730 3176 c0 -9 7 -16 16 -16 9 0 14 5 12 12 -6 18 -28 21 -28 4z"/>
<path d="M3621 3134 c0 -11 3 -14 6 -6 3 7 2 16 -1 19 -3 4 -6 -2 -5 -13z"/>
<path d="M3710 3109 c0 -5 5 -7 10 -4 6 3 10 8 10 11 0 2 -4 4 -10 4 -5 0 -10
-5 -10 -11z"/>
<path d="M3180 3071 c0 -5 5 -13 10 -16 6 -3 10 -2 10 4 0 5 -4 13 -10 16 -5
3 -10 2 -10 -4z"/>
<path d="M3606 3025 c-9 -26 -7 -32 5 -12 6 10 9 21 6 23 -2 3 -7 -2 -11 -11z"/>
<path d="M3639 3013 c-21 -59 -21 -57 -4 -43 13 11 15 9 15 -11 0 -18 3 -20 9
-10 7 11 11 10 20 -5 6 -11 11 -16 11 -11 0 7 -6 21 -29 65 -6 13 -9 27 -6 32
4 6 4 10 0 10 -3 0 -10 -12 -16 -27z"/>
<path d="M3710 2975 c0 -5 5 -17 10 -25 5 -8 10 -10 10 -5 0 6 -5 17 -10 25
-5 8 -10 11 -10 5z"/>
<path d="M3580 2966 c0 -2 7 -7 16 -10 8 -3 12 -2 9 4 -6 10 -25 14 -25 6z"/>
<path d="M2187 2919 c-4 -16 -3 -18 9 -8 16 13 19 29 5 29 -5 0 -11 -9 -14
-21z"/>
<path d="M3720 2910 c0 -5 5 -10 11 -10 5 0 7 5 4 10 -3 6 -8 10 -11 10 -2 0
-4 -4 -4 -10z"/>
<path d="M3610 2892 c0 -4 -16 -7 -35 -7 -19 1 -32 -2 -29 -7 3 -4 21 -8 40
-8 24 0 34 5 34 15 0 8 -2 15 -5 15 -3 0 -5 -4 -5 -8z"/>
<path d="M2190 2865 c0 -8 4 -15 10 -15 5 0 7 7 4 15 -4 8 -8 15 -10 15 -2 0
-4 -7 -4 -15z"/>
<path d="M3761 2864 c0 -11 3 -14 6 -6 3 7 2 16 -1 19 -3 4 -6 -2 -5 -13z"/>
<path d="M2229 2866 c-8 -7 -7 -66 0 -66 6 0 11 10 11 23 0 13 5 28 10 33 7 7
6 11 -5 11 -8 0 -15 -1 -16 -1z"/>
<path d="M2156 2797 c3 -10 9 -15 12 -12 3 3 0 11 -7 18 -10 9 -11 8 -5 -6z"/>
<path d="M2132 2780 c0 -14 2 -19 5 -12 2 6 2 18 0 25 -3 6 -5 1 -5 -13z"/>
<path d="M2198 2713 c7 -3 16 -2 19 1 4 3 -2 6 -13 5 -11 0 -14 -3 -6 -6z"/>
<path d="M2485 2680 c-4 -6 -3 -16 3 -22 6 -6 12 -6 17 2 4 6 3 16 -3 22 -6 6
-12 6 -17 -2z"/>
<path d="M2507 2620 c-3 -14 -2 -26 3 -28 6 -2 10 -8 10 -13 0 -6 -5 -7 -12
-3 -7 5 -8 3 -3 -6 6 -10 4 -12 -11 -6 -14 5 -16 4 -8 -4 12 -12 44 -3 44 12
0 5 4 7 9 4 5 -3 11 6 14 20 4 21 1 25 -14 21 -11 -3 -19 1 -21 12 -3 11 -6 8
-11 -9z"/>
<path d="M2696 2581 c-4 -5 -2 -12 3 -15 5 -4 12 -2 15 3 4 5 2 12 -3 15 -5 4
-12 2 -15 -3z"/>
<path d="M3224 2501 c5 -8 56 -3 56 5 0 2 -14 4 -31 4 -16 0 -28 -4 -25 -9z"/>
<path d="M2290 2330 c0 -5 5 -10 11 -10 5 0 7 5 4 10 -3 6 -8 10 -11 10 -2 0
-4 -4 -4 -10z"/>
<path d="M2546 1524 c-8 -21 10 -42 23 -28 6 5 5 16 -3 27 -13 16 -14 16 -20
1z"/>
<path d="M2955 1431 c-3 -5 -1 -12 5 -16 5 -3 10 1 10 9 0 18 -6 21 -15 7z"/>
<path d="M3083 1373 c9 -2 23 -2 30 0 6 3 -1 5 -18 5 -16 0 -22 -2 -12 -5z"/>
<path d="M3411 1311 c-7 -5 -10 -14 -7 -20 4 -6 3 -11 -3 -11 -5 0 -9 -8 -8
-19 1 -18 3 -18 34 -3 27 13 30 18 20 30 -6 8 -11 18 -9 21 6 10 -12 11 -27 2z"/>
</g>
</svg>
