<svg width="69" height="60" viewBox="0 0 69 60" fill="none" xmlns="http://www.w3.org/2000/svg">
<path d="M55.6692 19.5903C54.9503 19.3507 54.2314 19.1244 53.5125 18.9113C53.6323 18.4188 53.7388 17.9262 53.8453 17.4336C55.4828 9.49921 54.4045 3.12239 50.7701 1.01897C47.2688 -0.991256 41.5576 1.09885 35.7799 6.13108C35.2074 6.62365 34.6483 7.14285 34.1158 7.66205C33.7563 7.31592 33.3836 6.96979 33.0108 6.63697C26.9535 1.2586 20.8829 -1.00457 17.2485 1.11216C13.7605 3.13571 12.7221 9.13977 14.1865 16.6482C14.333 17.3937 14.4927 18.1259 14.6791 18.8714C13.8271 19.111 12.9884 19.3773 12.2029 19.6569C5.09391 22.1197 -0.00488281 26.0071 -0.00488281 30.0275C-0.00488281 34.1811 5.42673 38.348 12.8153 40.8774C13.4144 41.0771 14.0135 41.2768 14.6259 41.4499C14.4262 42.2486 14.2531 43.0341 14.0934 43.8462C12.6955 51.2348 13.7872 57.0924 17.2751 59.1026C20.8696 61.1794 26.9136 59.0494 32.7978 53.8973C33.2638 53.4846 33.7297 53.0586 34.1957 52.606C34.7814 53.1784 35.3938 53.7243 36.0062 54.2568C41.7041 59.1559 47.3354 61.1395 50.81 59.1293C54.4045 57.0525 55.576 50.7555 54.0583 43.0874C53.9385 42.5016 53.8054 41.9025 53.6589 41.2901C54.085 41.1703 54.4976 41.0372 54.9103 40.9041C62.5918 38.3613 68.1566 34.2477 68.1566 30.0275C68.1566 25.9937 62.9113 22.0798 55.6692 19.5903ZM37.657 8.28775C42.6093 3.97441 47.2289 2.28369 49.3323 3.49515C51.5821 4.78649 52.4475 10.0051 51.0363 16.8612C50.9431 17.3138 50.8499 17.7531 50.7301 18.1925C47.7747 17.5268 44.7793 17.0476 41.7706 16.7813C40.04 14.3051 38.1496 11.9355 36.0994 9.71222C36.6186 9.21965 37.1245 8.7537 37.657 8.28775ZM20.3504 33.4622C20.9627 34.6337 21.5884 35.792 22.2541 36.9369C22.933 38.0951 23.6253 39.2533 24.3575 40.3849C22.2807 40.1585 20.2172 39.8257 18.1804 39.3864C18.7661 37.4694 19.4983 35.4858 20.3504 33.4622ZM20.3504 26.726C19.5117 24.7423 18.8061 22.7987 18.2203 20.9216C20.1374 20.4956 22.1742 20.1494 24.2909 19.8832C23.5854 20.9881 22.8931 22.1197 22.2408 23.2646C21.5885 24.3962 20.9494 25.5544 20.3504 26.726ZM21.868 30.0941C22.7467 28.2569 23.7052 26.4597 24.717 24.6891C25.7287 22.9185 26.8204 21.2011 27.9653 19.5104C29.9622 19.364 31.999 19.2841 34.0758 19.2841C36.1526 19.2841 38.2028 19.364 40.1864 19.5104C41.318 21.1878 42.3963 22.9052 43.4214 24.6625C44.4465 26.4198 45.405 28.217 46.3103 30.0408C45.4183 31.878 44.4598 33.6885 43.4347 35.4724C42.423 37.243 41.3446 38.9604 40.213 40.6644C38.2294 40.8109 36.1659 40.8774 34.0758 40.8774C31.9857 40.8774 29.9622 40.8109 28.0052 40.6911C26.847 39.0003 25.7554 37.2697 24.7303 35.4991C23.7052 33.7285 22.76 31.9312 21.868 30.0941ZM45.9109 36.9102C46.5899 35.7387 47.2289 34.5539 47.8546 33.3557C48.7066 35.2861 49.4521 37.243 50.1044 39.2533C48.0409 39.7192 45.9508 40.0787 43.8474 40.3183C44.5663 39.2 45.2453 38.0551 45.9109 36.9102ZM47.8279 26.726C47.2022 25.5544 46.5632 24.3829 45.8976 23.238C45.2453 22.1064 44.5663 20.9881 43.8607 19.8832C46.0041 20.1494 48.0543 20.5089 49.9713 20.9482C49.3589 22.9185 48.64 24.8355 47.8279 26.726ZM34.1025 11.7491C35.5003 13.2667 36.8183 14.8643 38.043 16.5151C35.4071 16.3952 32.7579 16.3952 30.1219 16.5151C31.4266 14.7977 32.7712 13.2002 34.1025 11.7491ZM18.6596 3.58834C20.8962 2.28369 25.8619 4.14748 31.0938 8.78032C31.4266 9.07321 31.7594 9.39271 32.1055 9.71222C30.0421 11.9355 28.1383 14.3051 26.3944 16.7813C23.3857 17.0476 20.4036 17.5135 17.4482 18.1658C17.2751 17.4869 17.1287 16.7946 16.9822 16.1024C15.7308 9.65897 16.5562 4.7998 18.6596 3.58834ZM15.398 38.6808C14.8389 38.5211 14.293 38.348 13.7472 38.1616C10.9116 37.2697 7.68991 35.8585 5.36017 34.008C4.01558 33.0761 3.11031 31.6384 2.85737 30.0275C2.85737 27.5913 7.0642 24.4761 13.1348 22.3594C13.8937 22.0931 14.6658 21.8535 15.4379 21.6272C16.3432 24.516 17.4349 27.3517 18.6996 30.0941C17.4215 32.8765 16.3166 35.752 15.398 38.6808ZM30.9207 51.7274C28.7241 53.7376 26.1814 55.3351 23.4123 56.4268C21.9346 57.1323 20.2305 57.1989 18.7129 56.5998C16.5962 55.3751 15.7175 50.6756 16.9157 44.3521C17.0621 43.6066 17.2219 42.861 17.4082 42.1288C20.3903 42.7678 23.399 43.2072 26.4476 43.4335C28.2049 45.923 30.1353 48.306 32.1987 50.5425C31.7727 50.9552 31.3467 51.3546 30.9207 51.7274ZM34.1823 48.4923C32.8244 47.0279 31.4665 45.4038 30.1486 43.6598C31.4266 43.7131 32.7446 43.7397 34.0758 43.7397C35.4471 43.7397 36.7916 43.7131 38.1229 43.6465C36.8981 45.3372 35.5802 46.9481 34.1823 48.4923ZM51.5821 52.4862C51.4623 54.1103 50.6636 55.628 49.3855 56.6531C47.2688 57.8779 42.7558 56.2803 37.8833 52.1001C37.3242 51.6208 36.765 51.1016 36.1926 50.5691C38.2294 48.3193 40.1065 45.9363 41.8106 43.4335C44.8592 43.1805 47.8945 42.7146 50.8899 42.0356C51.023 42.5815 51.1428 43.1273 51.2493 43.6598C51.9017 46.5354 52.0082 49.5307 51.5821 52.4862ZM54.0051 38.1749C53.6323 38.2948 53.2596 38.4146 52.8735 38.5211C51.9416 35.6189 50.7967 32.7833 49.4787 30.0275C50.7568 27.3117 51.8351 24.516 52.7404 21.6538C53.4326 21.8535 54.0983 22.0665 54.7373 22.2795C60.941 24.4095 65.2943 27.578 65.2943 30.0009C65.2943 32.6102 60.6482 35.9783 54.0051 38.1749ZM34.0758 23.9835C37.444 23.9835 40.1731 26.7126 40.1731 30.0808C40.1731 33.4489 37.444 36.178 34.0758 36.178C30.7077 36.178 27.9786 33.4489 27.9786 30.0808C27.9786 26.7126 30.7077 23.9835 34.0758 23.9835Z" fill="#495057"/>
</svg>
